ffmpeg started on 2026-04-09 at 15:31:33
Report written to "D:\Convert\FFMetrics\reports\psnr_report-6.txt"
Log level: 32
Command line:
ffmpeg -hide_banner -nostdin -r 24000/1001 -i "F:\\Convert\\files\\[DC] Make Heroine ga Oosugiru - 07_Telegram_HEVC(322).mkv" -r 24000/1001 -i "F:\\Convert\\files\\[DC] Make Heroine ga Oosugiru - 07_Telegram.mp4" -lavfi "[0:v]settb=AVTB,setpts=PTS-STARTPTS,format=pix_fmts=yuv420p10le,fps=24000/1001,scale=1920:1080:flags=lanczos:param0=3:out_range=limited:out_color_matrix=bt709:out_chroma_loc=left,setsar=1/1,setdar=(1920/1080)*(1/1),colorspace=format=yuv420p10:range=tv:primaries=bt709:trc=bt709:space=bt709:fast=0[main];[1:v]settb=AVTB,setpts=PTS-STARTPTS,format=pix_fmts=yuv420p,fps=24000/1001,scale=1920:1080:flags=lanczos:param0=3:out_range=limited:out_color_matrix=bt709:out_chroma_loc=left,setsar=1/1,setdar=(1920/1080)*(1/1),colorspace=format=yuv420p:range=tv:primaries=bt709:trc=bt709:space=bt709:fast=0[ref];[main][ref]psnr=eof_action=endall:stats_file='D\\:/Convert/FFMetrics/logs/psnr_logfile-6.txt'" -f null -
Input #0, matroska,webm, from 'F:\Convert\files\[DC] Make Heroine ga Oosugiru - 07_Telegram_HEVC(322).mkv':
  Metadata:
    COMPATIBLE_BRANDS: isomiso2avc1mp41
    MAJOR_BRAND     : isom
    MINOR_VERSION   : 512
    ENCODER         : Lavf61.7.100
  Duration: 00:24:06.79, start: -0.021000, bitrate: 995 kb/s
  Stream #0:0: Video: hevc (Main 10), yuv420p10le(tv, bt709, progressive), 1920x1080 [SAR 1:1 DAR 16:9], 23.98 fps, 23.98 tbr, 1k tbn (default)
      Metadata:
        HANDLER_NAME    : VideoHandler
        VENDOR_ID       : [0][0][0][0]
        ENCODER         : Lavc61.19.100 libx265
        BPS             : 797956
        DURATION        : 00:24:06.569708333
        NUMBER_OF_FRAMES: 34683
        NUMBER_OF_BYTES : 144287441
        _STATISTICS_WRITING_APP: mkvpropedit v94.0 ('Initiate') 64-bit
        _STATISTICS_WRITING_DATE_UTC: 2026-04-09 11:09:31
        _STATISTICS_TAGS: BPS DURATION NUMBER_OF_FRAMES NUMBER_OF_BYTES
  Stream #0:1: Audio: aac (LC), 48000 Hz, stereo, fltp (default)
      Metadata:
        HANDLER_NAME    : SoundHandler
        VENDOR_ID       : [0][0][0][0]
        ENCODER         : Lavc61.19.100 aac
        BPS             : 193194
        DURATION        : 00:24:06.784000000
        NUMBER_OF_FRAMES: 67819
        NUMBER_OF_BYTES : 34938755
        _STATISTICS_WRITING_APP: mkvpropedit v94.0 ('Initiate') 64-bit
        _STATISTICS_WRITING_DATE_UTC: 2026-04-09 11:09:31
        _STATISTICS_TAGS: BPS DURATION NUMBER_OF_FRAMES NUMBER_OF_BYTES
Input #1, mov,mp4,m4a,3gp,3g2,mj2, from 'F:\Convert\files\[DC] Make Heroine ga Oosugiru - 07_Telegram.mp4':
  Metadata:
    major_brand     : isom
    minor_version   : 512
    compatible_brands: isomiso2avc1mp41
    encoder         : Lavf60.16.100
  Duration: 00:24:06.74, start: 0.000000, bitrate: 3764 kb/s
  Stream #1:0[0x1](und): Video: h264 (High) (avc1 / 0x31637661), yuv420p(tv, bt709, progressive), 1920x1080 [SAR 1:1 DAR 16:9], 3616 kb/s, 23.98 fps, 23.98 tbr, 24k tbn (default)
      Metadata:
        handler_name    : VideoHandler
        vendor_id       : [0][0][0][0]
        encoder         : Lavc60.31.102 h264_qsv
  Stream #1:1[0x2](und): Audio: aac (HE-AACv2) (mp4a / 0x6134706D), 48000 Hz, stereo, fltp, 144 kb/s (default)
      Metadata:
        handler_name    : SoundHandler
        vendor_id       : [0][0][0][0]
Stream mapping:
  Stream #0:0 (hevc) -> settb:default
  Stream #1:0 (h264) -> settb:default
  psnr:default -> Stream #0:0 (wrapped_avframe)
  Stream #0:1 -> #0:1 (aac (native) -> pcm_s16le (native))
Output #0, null, to 'pipe:':
  Metadata:
    COMPATIBLE_BRANDS: isomiso2avc1mp41
    MAJOR_BRAND     : isom
    MINOR_VERSION   : 512
    encoder         : Lavf61.7.100
  Stream #0:0: Video: wrapped_avframe, yuv420p10le(tv, bt709, progressive), 1920x1080 [SAR 1:1 DAR 16:9], q=2-31, 200 kb/s, 23.98 fps, 23.98 tbn
      Metadata:
        encoder         : Lavc61.19.100 wrapped_avframe
  Stream #0:1: Audio: pcm_s16le, 48000 Hz, stereo, s16, 1536 kb/s (default)
      Metadata:
        HANDLER_NAME    : SoundHandler
        VENDOR_ID       : [0][0][0][0]
        _STATISTICS_TAGS: BPS DURATION NUMBER_OF_FRAMES NUMBER_OF_BYTES
        BPS             : 193194
        DURATION        : 00:24:06.784000000
        NUMBER_OF_FRAMES: 67819
        NUMBER_OF_BYTES : 34938755
        _STATISTICS_WRITING_APP: mkvpropedit v94.0 ('Initiate') 64-bit
        _STATISTICS_WRITING_DATE_UTC: 2026-04-09 11:09:31
        encoder         : Lavc61.19.100 pcm_s16le
frame=  133 fps=0.0 q=-0.0 size=N/A time=00:00:05.54 bitrate=N/A speed=10.6x    frame=  315 fps=304 q=-0.0 size=N/A time=00:00:13.13 bitrate=N/A speed=12.7x    frame=  507 fps=327 q=-0.0 size=N/A time=00:00:21.14 bitrate=N/A speed=13.7x    frame=  699 fps=337 q=-0.0 size=N/A time=00:00:29.15 bitrate=N/A speed=14.1x    frame=  876 fps=339 q=-0.0 size=N/A time=00:00:36.53 bitrate=N/A speed=14.1x    frame=  994 fps=321 q=-0.0 size=N/A time=00:00:41.45 bitrate=N/A speed=13.4x    frame= 1146 fps=316 q=-0.0 size=N/A time=00:00:47.79 bitrate=N/A speed=13.2x    frame= 1294 fps=313 q=-0.0 size=N/A time=00:00:53.97 bitrate=N/A speed=  13x    frame= 1450 fps=312 q=-0.0 size=N/A time=00:01:00.47 bitrate=N/A speed=  13x    frame= 1583 fps=307 q=-0.0 size=N/A time=00:01:06.02 bitrate=N/A speed=12.8x    frame= 1723 fps=304 q=-0.0 size=N/A time=00:01:11.86 bitrate=N/A speed=12.7x    frame= 1890 fps=305 q=-0.0 size=N/A time=00:01:18.82 bitrate=N/A speed=12.7x    frame= 2044 fps=305 q=-0.0 size=N/A time=00:01:25.25 bitrate=N/A speed=12.7x    frame= 2146 fps=297 q=-0.0 size=N/A time=00:01:29.50 bitrate=N/A speed=12.4x    frame= 2286 fps=295 q=-0.0 size=N/A time=00:01:35.34 bitrate=N/A speed=12.3x    frame= 2428 fps=294 q=-0.0 size=N/A time=00:01:41.26 bitrate=N/A speed=12.3x    frame= 2549 fps=291 q=-0.0 size=N/A time=00:01:46.31 bitrate=N/A speed=12.1x    frame= 2709 fps=292 q=-0.0 size=N/A time=00:01:52.98 bitrate=N/A speed=12.2x    frame= 2862 fps=292 q=-0.0 size=N/A time=00:01:59.36 bitrate=N/A speed=12.2x    frame= 3041 fps=295 q=-0.0 size=N/A time=00:02:06.83 bitrate=N/A speed=12.3x    frame= 3226 fps=298 q=-0.0 size=N/A time=00:02:14.55 bitrate=N/A speed=12.4x    frame= 3419 fps=301 q=-0.0 size=N/A time=00:02:22.60 bitrate=N/A speed=12.6x    frame= 3602 fps=304 q=-0.0 size=N/A time=00:02:30.23 bitrate=N/A speed=12.7x    frame= 3789 fps=306 q=-0.0 size=N/A time=00:02:38.03 bitrate=N/A speed=12.8x    frame= 3977 fps=308 q=-0.0 size=N/A time=00:02:45.87 bitrate=N/A speed=12.9x    frame= 4160 fps=310 q=-0.0 size=N/A time=00:02:53.50 bitrate=N/A speed=12.9x    frame= 4339 fps=312 q=-0.0 size=N/A time=00:03:00.97 bitrate=N/A speed=  13x    frame= 4528 fps=313 q=-0.0 size=N/A time=00:03:08.85 bitrate=N/A speed=13.1x    frame= 4717 fps=315 q=-0.0 size=N/A time=00:03:16.73 bitrate=N/A speed=13.2x    frame= 4902 fps=317 q=-0.0 size=N/A time=00:03:24.45 bitrate=N/A speed=13.2x    frame= 5094 fps=318 q=-0.0 size=N/A time=00:03:32.46 bitrate=N/A speed=13.3x    frame= 5278 fps=320 q=-0.0 size=N/A time=00:03:40.13 bitrate=N/A speed=13.3x    frame= 5469 fps=321 q=-0.0 size=N/A time=00:03:48.10 bitrate=N/A speed=13.4x    frame= 5661 fps=323 q=-0.0 size=N/A time=00:03:56.11 bitrate=N/A speed=13.5x    frame= 5842 fps=324 q=-0.0 size=N/A time=00:04:03.66 bitrate=N/A speed=13.5x    frame= 6035 fps=325 q=-0.0 size=N/A time=00:04:11.70 bitrate=N/A speed=13.6x    frame= 6230 fps=327 q=-0.0 size=N/A time=00:04:19.84 bitrate=N/A speed=13.6x    frame= 6418 fps=327 q=-0.0 size=N/A time=00:04:27.68 bitrate=N/A speed=13.7x    frame= 6616 fps=329 q=-0.0 size=N/A time=00:04:35.94 bitrate=N/A speed=13.7x    frame= 6813 fps=330 q=-0.0 size=N/A time=00:04:44.15 bitrate=N/A speed=13.8x    frame= 7002 fps=331 q=-0.0 size=N/A time=00:04:52.04 bitrate=N/A speed=13.8x    frame= 7175 fps=331 q=-0.0 size=N/A time=00:04:59.25 bitrate=N/A speed=13.8x    frame= 7358 fps=331 q=-0.0 size=N/A time=00:05:06.88 bitrate=N/A speed=13.8x    frame= 7541 fps=332 q=-0.0 size=N/A time=00:05:14.52 bitrate=N/A speed=13.9x    frame= 7722 fps=332 q=-0.0 size=N/A time=00:05:22.07 bitrate=N/A speed=13.9x    frame= 7912 fps=333 q=-0.0 size=N/A time=00:05:29.99 bitrate=N/A speed=13.9x    frame= 8104 fps=334 q=-0.0 size=N/A time=00:05:38.00 bitrate=N/A speed=13.9x    frame= 8289 fps=334 q=-0.0 size=N/A time=00:05:45.72 bitrate=N/A speed=  14x    frame= 8491 fps=336 q=-0.0 size=N/A time=00:05:54.14 bitrate=N/A speed=  14x    frame= 8676 fps=336 q=-0.0 size=N/A time=00:06:01.86 bitrate=N/A speed=  14x    frame= 8867 fps=337 q=-0.0 size=N/A time=00:06:09.82 bitrate=N/A speed=  14x    frame= 9047 fps=337 q=-0.0 size=N/A time=00:06:17.33 bitrate=N/A speed=14.1x    frame= 9242 fps=338 q=-0.0 size=N/A time=00:06:25.46 bitrate=N/A speed=14.1x    frame= 9431 fps=338 q=-0.0 size=N/A time=00:06:33.35 bitrate=N/A speed=14.1x    frame= 9626 fps=339 q=-0.0 size=N/A time=00:06:41.48 bitrate=N/A speed=14.1x    frame= 9811 fps=339 q=-0.0 size=N/A time=00:06:49.20 bitrate=N/A speed=14.2x    frame=10000 fps=340 q=-0.0 size=N/A time=00:06:57.08 bitrate=N/A speed=14.2x    frame=10185 fps=340 q=-0.0 size=N/A time=00:07:04.79 bitrate=N/A speed=14.2x    frame=10376 fps=341 q=-0.0 size=N/A time=00:07:12.76 bitrate=N/A speed=14.2x    frame=10552 fps=341 q=-0.0 size=N/A time=00:07:20.10 bitrate=N/A speed=14.2x    frame=10742 fps=341 q=-0.0 size=N/A time=00:07:28.03 bitrate=N/A speed=14.2x    frame=10927 fps=341 q=-0.0 size=N/A time=00:07:35.74 bitrate=N/A speed=14.2x    frame=11118 fps=342 q=-0.0 size=N/A time=00:07:43.71 bitrate=N/A speed=14.3x    frame=11289 fps=342 q=-0.0 size=N/A time=00:07:50.84 bitrate=N/A speed=14.3x    frame=11479 fps=342 q=-0.0 size=N/A time=00:07:58.76 bitrate=N/A speed=14.3x    frame=11671 fps=342 q=-0.0 size=N/A time=00:08:06.77 bitrate=N/A speed=14.3x    frame=11850 fps=343 q=-0.0 size=N/A time=00:08:14.24 bitrate=N/A speed=14.3x    frame=12045 fps=343 q=-0.0 size=N/A time=00:08:22.37 bitrate=N/A speed=14.3x    frame=12236 fps=344 q=-0.0 size=N/A time=00:08:30.34 bitrate=N/A speed=14.3x    frame=12420 fps=344 q=-0.0 size=N/A time=00:08:38.01 bitrate=N/A speed=14.3x    frame=12610 fps=344 q=-0.0 size=N/A time=00:08:45.94 bitrate=N/A speed=14.3x    frame=12808 fps=345 q=-0.0 size=N/A time=00:08:54.20 bitrate=N/A speed=14.4x    frame=12993 fps=345 q=-0.0 size=N/A time=00:09:01.91 bitrate=N/A speed=14.4x    frame=13186 fps=345 q=-0.0 size=N/A time=00:09:09.96 bitrate=N/A speed=14.4x    frame=13365 fps=345 q=-0.0 size=N/A time=00:09:17.43 bitrate=N/A speed=14.4x    frame=13552 fps=346 q=-0.0 size=N/A time=00:09:25.23 bitrate=N/A speed=14.4x    frame=13747 fps=346 q=-0.0 size=N/A time=00:09:33.36 bitrate=N/A speed=14.4x    frame=13937 fps=346 q=-0.0 size=N/A time=00:09:41.28 bitrate=N/A speed=14.4x    frame=14110 fps=346 q=-0.0 size=N/A time=00:09:48.50 bitrate=N/A speed=14.4x    frame=14303 fps=346 q=-0.0 size=N/A time=00:09:56.55 bitrate=N/A speed=14.4x    frame=14485 fps=346 q=-0.0 size=N/A time=00:10:04.14 bitrate=N/A speed=14.4x    frame=14674 fps=347 q=-0.0 size=N/A time=00:10:12.02 bitrate=N/A speed=14.5x    frame=14859 fps=347 q=-0.0 size=N/A time=00:10:19.74 bitrate=N/A speed=14.5x    frame=15052 fps=347 q=-0.0 size=N/A time=00:10:27.79 bitrate=N/A speed=14.5x    frame=15200 fps=346 q=-0.0 size=N/A time=00:10:33.96 bitrate=N/A speed=14.4x    frame=15384 fps=347 q=-0.0 size=N/A time=00:10:41.64 bitrate=N/A speed=14.5x    frame=15571 fps=347 q=-0.0 size=N/A time=00:10:49.44 bitrate=N/A speed=14.5x    frame=15758 fps=347 q=-0.0 size=N/A time=00:10:57.23 bitrate=N/A speed=14.5x    frame=15953 fps=347 q=-0.0 size=N/A time=00:11:05.37 bitrate=N/A speed=14.5x    frame=16145 fps=348 q=-0.0 size=N/A time=00:11:13.38 bitrate=N/A speed=14.5x    frame=16339 fps=348 q=-0.0 size=N/A time=00:11:21.47 bitrate=N/A speed=14.5x    frame=16521 fps=348 q=-0.0 size=N/A time=00:11:29.06 bitrate=N/A speed=14.5x    frame=16715 fps=348 q=-0.0 size=N/A time=00:11:37.15 bitrate=N/A speed=14.5x    frame=16905 fps=348 q=-0.0 size=N/A time=00:11:45.07 bitrate=N/A speed=14.5x    frame=17099 fps=349 q=-0.0 size=N/A time=00:11:53.17 bitrate=N/A speed=14.5x    frame=17290 fps=349 q=-0.0 size=N/A time=00:12:01.13 bitrate=N/A speed=14.5x    frame=17479 fps=349 q=-0.0 size=N/A time=00:12:09.01 bitrate=N/A speed=14.6x    frame=17659 fps=349 q=-0.0 size=N/A time=00:12:16.52 bitrate=N/A speed=14.6x    frame=17854 fps=349 q=-0.0 size=N/A time=00:12:24.66 bitrate=N/A speed=14.6x    frame=18040 fps=349 q=-0.0 size=N/A time=00:12:32.41 bitrate=N/A speed=14.6x    frame=18222 fps=349 q=-0.0 size=N/A time=00:12:40.00 bitrate=N/A speed=14.6x    frame=18398 fps=349 q=-0.0 size=N/A time=00:12:47.34 bitrate=N/A speed=14.6x    frame=18598 fps=350 q=-0.0 size=N/A time=00:12:55.69 bitrate=N/A speed=14.6x    frame=18782 fps=350 q=-0.0 size=N/A time=00:13:03.36 bitrate=N/A speed=14.6x    frame=18979 fps=350 q=-0.0 size=N/A time=00:13:11.58 bitrate=N/A speed=14.6x    frame=19165 fps=350 q=-0.0 size=N/A time=00:13:19.34 bitrate=N/A speed=14.6x    frame=19366 fps=351 q=-0.0 size=N/A time=00:13:27.72 bitrate=N/A speed=14.6x    frame=19549 fps=351 q=-0.0 size=N/A time=00:13:35.35 bitrate=N/A speed=14.6x    frame=19740 fps=351 q=-0.0 size=N/A time=00:13:43.32 bitrate=N/A speed=14.6x    frame=19932 fps=351 q=-0.0 size=N/A time=00:13:51.33 bitrate=N/A speed=14.6x    frame=20130 fps=351 q=-0.0 size=N/A time=00:13:59.58 bitrate=N/A speed=14.7x    frame=20321 fps=351 q=-0.0 size=N/A time=00:14:07.55 bitrate=N/A speed=14.7x    frame=20495 fps=351 q=-0.0 size=N/A time=00:14:14.81 bitrate=N/A speed=14.7x    frame=20664 fps=351 q=-0.0 size=N/A time=00:14:21.86 bitrate=N/A speed=14.6x    frame=20863 fps=351 q=-0.0 size=N/A time=00:14:30.16 bitrate=N/A speed=14.7x    frame=21055 fps=352 q=-0.0 size=N/A time=00:14:38.16 bitrate=N/A speed=14.7x    frame=21246 fps=352 q=-0.0 size=N/A time=00:14:46.13 bitrate=N/A speed=14.7x    frame=21429 fps=352 q=-0.0 size=N/A time=00:14:53.76 bitrate=N/A speed=14.7x    frame=21629 fps=352 q=-0.0 size=N/A time=00:15:02.10 bitrate=N/A speed=14.7x    frame=21817 fps=352 q=-0.0 size=N/A time=00:15:09.95 bitrate=N/A speed=14.7x    frame=22002 fps=352 q=-0.0 size=N/A time=00:15:17.66 bitrate=N/A speed=14.7x    frame=22192 fps=352 q=-0.0 size=N/A time=00:15:25.59 bitrate=N/A speed=14.7x    frame=22384 fps=353 q=-0.0 size=N/A time=00:15:33.59 bitrate=N/A speed=14.7x    frame=22570 fps=353 q=-0.0 size=N/A time=00:15:41.35 bitrate=N/A speed=14.7x    frame=22750 fps=353 q=-0.0 size=N/A time=00:15:48.86 bitrate=N/A speed=14.7x    frame=22938 fps=353 q=-0.0 size=N/A time=00:15:56.70 bitrate=N/A speed=14.7x    frame=23124 fps=353 q=-0.0 size=N/A time=00:16:04.46 bitrate=N/A speed=14.7x    frame=23315 fps=353 q=-0.0 size=N/A time=00:16:12.42 bitrate=N/A speed=14.7x    frame=23500 fps=353 q=-0.0 size=N/A time=00:16:20.14 bitrate=N/A speed=14.7x    frame=23703 fps=353 q=-0.0 size=N/A time=00:16:28.61 bitrate=N/A speed=14.7x    frame=23895 fps=353 q=-0.0 size=N/A time=00:16:36.62 bitrate=N/A speed=14.7x    frame=24085 fps=353 q=-0.0 size=N/A time=00:16:44.54 bitrate=N/A speed=14.7x    frame=24266 fps=353 q=-0.0 size=N/A time=00:16:52.09 bitrate=N/A speed=14.7x    frame=24461 fps=354 q=-0.0 size=N/A time=00:17:00.22 bitrate=N/A speed=14.7x    frame=24650 fps=354 q=-0.0 size=N/A time=00:17:08.11 bitrate=N/A speed=14.8x    frame=24844 fps=354 q=-0.0 size=N/A time=00:17:16.20 bitrate=N/A speed=14.8x    frame=25031 fps=354 q=-0.0 size=N/A time=00:17:24.00 bitrate=N/A speed=14.8x    frame=25224 fps=354 q=-0.0 size=N/A time=00:17:32.05 bitrate=N/A speed=14.8x    frame=25410 fps=354 q=-0.0 size=N/A time=00:17:39.80 bitrate=N/A speed=14.8x    frame=25603 fps=354 q=-0.0 size=N/A time=00:17:47.85 bitrate=N/A speed=14.8x    frame=25785 fps=354 q=-0.0 size=N/A time=00:17:55.44 bitrate=N/A speed=14.8x    frame=25981 fps=354 q=-0.0 size=N/A time=00:18:03.62 bitrate=N/A speed=14.8x    frame=26170 fps=355 q=-0.0 size=N/A time=00:18:11.50 bitrate=N/A speed=14.8x    frame=26358 fps=355 q=-0.0 size=N/A time=00:18:19.34 bitrate=N/A speed=14.8x    frame=26557 fps=355 q=-0.0 size=N/A time=00:18:27.64 bitrate=N/A speed=14.8x    frame=26747 fps=355 q=-0.0 size=N/A time=00:18:35.57 bitrate=N/A speed=14.8x    frame=26926 fps=355 q=-0.0 size=N/A time=00:18:43.03 bitrate=N/A speed=14.8x    frame=27106 fps=355 q=-0.0 size=N/A time=00:18:50.54 bitrate=N/A speed=14.8x    frame=27280 fps=355 q=-0.0 size=N/A time=00:18:57.80 bitrate=N/A speed=14.8x    frame=27466 fps=355 q=-0.0 size=N/A time=00:19:05.56 bitrate=N/A speed=14.8x    frame=27644 fps=355 q=-0.0 size=N/A time=00:19:12.98 bitrate=N/A speed=14.8x    frame=27833 fps=355 q=-0.0 size=N/A time=00:19:20.86 bitrate=N/A speed=14.8x    frame=28023 fps=355 q=-0.0 size=N/A time=00:19:28.79 bitrate=N/A speed=14.8x    frame=28208 fps=355 q=-0.0 size=N/A time=00:19:36.50 bitrate=N/A speed=14.8x    frame=28388 fps=355 q=-0.0 size=N/A time=00:19:44.01 bitrate=N/A speed=14.8x    frame=28570 fps=355 q=-0.0 size=N/A time=00:19:51.60 bitrate=N/A speed=14.8x    frame=28746 fps=355 q=-0.0 size=N/A time=00:19:58.94 bitrate=N/A speed=14.8x    frame=28918 fps=355 q=-0.0 size=N/A time=00:20:06.12 bitrate=N/A speed=14.8x    frame=29081 fps=354 q=-0.0 size=N/A time=00:20:12.92 bitrate=N/A speed=14.8x    frame=29262 fps=354 q=-0.0 size=N/A time=00:20:20.46 bitrate=N/A speed=14.8x    frame=29440 fps=354 q=-0.0 size=N/A time=00:20:27.89 bitrate=N/A speed=14.8x    frame=29605 fps=354 q=-0.0 size=N/A time=00:20:34.77 bitrate=N/A speed=14.8x    frame=29778 fps=354 q=-0.0 size=N/A time=00:20:41.99 bitrate=N/A speed=14.8x    frame=29936 fps=354 q=-0.0 size=N/A time=00:20:48.58 bitrate=N/A speed=14.8x    frame=30095 fps=353 q=-0.0 size=N/A time=00:20:55.21 bitrate=N/A speed=14.7x    frame=30271 fps=353 q=-0.0 size=N/A time=00:21:02.55 bitrate=N/A speed=14.7x    frame=30463 fps=353 q=-0.0 size=N/A time=00:21:10.56 bitrate=N/A speed=14.7x    frame=30648 fps=353 q=-0.0 size=N/A time=00:21:18.27 bitrate=N/A speed=14.7x    frame=30841 fps=354 q=-0.0 size=N/A time=00:21:26.32 bitrate=N/A speed=14.7x    frame=31023 fps=354 q=-0.0 size=N/A time=00:21:33.91 bitrate=N/A speed=14.7x    frame=31206 fps=354 q=-0.0 size=N/A time=00:21:41.55 bitrate=N/A speed=14.7x    frame=31385 fps=354 q=-0.0 size=N/A time=00:21:49.01 bitrate=N/A speed=14.7x    frame=31569 fps=354 q=-0.0 size=N/A time=00:21:56.69 bitrate=N/A speed=14.7x    frame=31745 fps=353 q=-0.0 size=N/A time=00:22:04.03 bitrate=N/A speed=14.7x    frame=31919 fps=353 q=-0.0 size=N/A time=00:22:11.28 bitrate=N/A speed=14.7x    frame=32097 fps=353 q=-0.0 size=N/A time=00:22:18.71 bitrate=N/A speed=14.7x    frame=32280 fps=353 q=-0.0 size=N/A time=00:22:26.34 bitrate=N/A speed=14.7x    frame=32473 fps=353 q=-0.0 size=N/A time=00:22:34.39 bitrate=N/A speed=14.7x    frame=32648 fps=353 q=-0.0 size=N/A time=00:22:41.69 bitrate=N/A speed=14.7x    frame=32797 fps=353 q=-0.0 size=N/A time=00:22:47.90 bitrate=N/A speed=14.7x    frame=32963 fps=353 q=-0.0 size=N/A time=00:22:54.83 bitrate=N/A speed=14.7x    frame=33137 fps=353 q=-0.0 size=N/A time=00:23:02.08 bitrate=N/A speed=14.7x    frame=33312 fps=353 q=-0.0 size=N/A time=00:23:09.38 bitrate=N/A speed=14.7x    frame=33474 fps=352 q=-0.0 size=N/A time=00:23:16.14 bitrate=N/A speed=14.7x    frame=33630 fps=352 q=-0.0 size=N/A time=00:23:22.65 bitrate=N/A speed=14.7x    frame=33760 fps=352 q=-0.0 size=N/A time=00:23:28.07 bitrate=N/A speed=14.7x    frame=33881 fps=351 q=-0.0 size=N/A time=00:23:33.12 bitrate=N/A speed=14.6x    frame=34037 fps=351 q=-0.0 size=N/A time=00:23:39.62 bitrate=N/A speed=14.6x    frame=34192 fps=350 q=-0.0 size=N/A time=00:23:46.09 bitrate=N/A speed=14.6x    frame=34328 fps=350 q=-0.0 size=N/A time=00:23:51.76 bitrate=N/A speed=14.6x    frame=34462 fps=350 q=-0.0 size=N/A time=00:23:57.35 bitrate=N/A speed=14.6x    frame=34630 fps=349 q=-0.0 size=N/A time=00:24:04.35 bitrate=N/A speed=14.6x    [Parsed_psnr_16 @ 000001a170956180] PSNR y:49.084324 u:50.383471 v:50.432510 average:49.482323 min:37.976452 max:inf
[out#0/null @ 000001a163d9dec0] video:14903KiB audio:271276KiB subtitle:0KiB other streams:0KiB global headers:0KiB muxing overhead: unknown
frame=34683 fps=349 q=-0.0 Lsize=N/A time=00:24:06.57 bitrate=N/A speed=14.6x    
